With: Michael Douglas, Shia LaBeouf en Josh Brolin

Na een gevangenisstraf van 8 jaar komt Gordon Gekko vrij. Ondanks zijn pogingen om Wall Street te waarschuwen voor de nakende economische ondergang, gelooft niemand hem door zijn afgenomen status in de financiële wereld. Hij besluit daarom maar om zich te concentreren op z'n privéleven. Hij wil de verwaterde relatie met z'n dochter Winnie verbeteren, maar door zijn lange afwezigheid en het feit dat Winnie hem de zelfmoord van haar broer Rudy verwijt, wil ze niks met hem te maken hebben. Ondertussen sterft de mentor van Jacob, een jonge beursmakelaar die de beleggingsfonds manager Bretton James verdenkt van de moord op z'n mentor. Jacob, die ook de verloofde van Winnie Gekko is, wil wraak en rekent daarbij op de hulp van Gordon. Gordon besluit Jacob te helpen, in de hoop zo dichter bij z'n dochter te raken.

To take down a merciless finance executive, a young trader agrees to a disgraced Wall street legend's proposal in exchange for the man to be reunited with his daughter, the trader's fiancée. 

------------------ Dutch Friends ------------------
You can find my Friends at: http://www.Film-Test.nl 
------ They got my dutchs subs ---- and more ------

General:

Complete name                    : Wall Street 2\Money Never Sleeps.avi
Format                           : AVI
Format/Info                      : Audio Video Interleave
File size                        : 1.89 GiB
Duration                         : 2h 7mn
Overall bit rate                 : 2 123 Kbps

Video:

Format                           : MPEG-4 Visual
Format profile                   : Simple@L3
Format settings, BVOP            : No
Format settings, QPel            : No
Format settings, GMC             : No warppoints
Format settings, Matrix          : Default (H.263)
Codec ID                         : XVID
Codec ID/Hint                    : XviD
Duration                         : 2h 7mn
Bit rate                         : 1 664 Kbps
Width                            : 720 pixels
Height                           : 304 pixels
Display aspect ratio             : 2.35:1
Frame rate                       : 25.000 fps
Color space                      : YUV
Chroma subsampling               : 4:2:0
Bit depth                        : 8 bits
Scan type                        : Progressive
Bits/(Pixel*Frame)               : 0.304
Stream size                      : 1.48 GiB (78%)
Writing library                  : XviD 1.1.2 (UTC 2006-11-01)

Audio:

Format                           : AC-3
Format/Info                      : Audio Coding 3
Mode extension                   : CM (complete main)
Codec ID                         : 2000
Duration                         : 2h 7mn
Bit rate mode                    : Constant
Bit rate                         : 448 Kbps
Channel(s)                       : 6 channels
Channel positions                : Front: L C R, Side: L R, LFE
Sampling rate                    : 48.0 KHz
Bit depth                        : 16 bits
Stream size                      : 409 MiB (21%)
Alignment                        : Aligned on interleaves
Interleave, duration             : 32 ms (0.80 video frame)

